<svg xmlns="http://www.w3.org/2000/svg" width="31.981" height="32" viewBox="0 0 31.981 32"><defs><style>.a{fill:rgba(255,255,255,0.4);}</style></defs><g transform="translate(-0.156 0)"><g transform="translate(19.106 0)"><path class="a" d="M315.834,9.83l-2.646-2.646L315.177,5.2a.937.937,0,0,0,0-1.326l-2.663-2.663a.965.965,0,0,0-1.326,0L309.2,3.2,306.553.549A1.875,1.875,0,0,0,303.9,3.2l9.281,9.281a1.875,1.875,0,1,0,2.652-2.652Z" transform="translate(-303.352 0)"/></g><g transform="translate(0.156 18.969)"><g transform="translate(0)"><path class="a" d="M12.637,313.337l-9.281-9.281A1.875,1.875,0,1,0,.7,306.708l2.647,2.647-1.985,1.984a.937.937,0,0,0,0,1.326l2.663,2.662a.937.937,0,0,0,1.326,0l1.985-1.985,2.646,2.646a1.875,1.875,0,0,0,2.652-2.652Z" transform="translate(-0.156 -303.507)"/></g></g><g transform="translate(11.311 11.156)"><path class="a" d="M184.339,178.492l-5.692,5.711,3.978,3.977,5.692-5.711Z" transform="translate(-178.647 -178.492)"/></g><g transform="translate(13.802 2.651)"><path class="a" d="M233.633,54.907,221.7,42.975a1.875,1.875,0,0,0-2.652,2.652l11.932,11.932a1.875,1.875,0,0,0,2.652-2.652Z" transform="translate(-218.499 -42.426)"/></g><g transform="translate(2.807 13.666)"><path class="a" d="M57.715,231.135,45.782,219.2a1.875,1.875,0,0,0-2.652,2.652l11.932,11.932a1.875,1.875,0,0,0,2.652-2.652Z" transform="translate(-42.581 -218.654)"/></g></g></svg>