<svg xmlns="http://www.w3.org/2000/svg" width="34" height="34" viewBox="0 0 34 34"><defs><style>.a{fill:none;}.b{fill:rgba(255,255,255,0.41);}</style></defs><path class="a" d="M0,0H34V34H0Z"/><path class="b" d="M22.25,13.5A4.25,4.25,0,1,0,18,9.25,4.232,4.232,0,0,0,22.25,13.5Zm-11.333,0a4.25,4.25,0,1,0-4.25-4.25A4.232,4.232,0,0,0,10.917,13.5Zm0,2.833C7.616,16.333,1,17.991,1,21.292v3.542H20.833V21.292C20.833,17.991,14.217,16.333,10.917,16.333Zm11.333,0c-.411,0-.878.028-1.374.071a5.978,5.978,0,0,1,2.791,4.888v3.542h8.5V21.292C32.167,17.991,25.551,16.333,22.25,16.333Z" transform="translate(0.417 2.083)"/></svg>